<svg width="245" height="40" viewBox="0 0 245 40" fill="none" xmlns="http://www.w3.org/2000/svg">
<rect width="245.001" height="40.0014" rx="8" fill="url(#paint0_linear_1_56)"/>
<rect x="1.07143" y="1.07143" width="242.858" height="37.8585" rx="6.92857" stroke="white" stroke-opacity="0.15" stroke-width="2.14286"/>
<g filter="url(#filter0_d_1_56)">
<rect x="8" y="6" width="28" height="28" fill="#999999"/>
</g>
<g filter="url(#filter1_d_1_56)">
<path d="M43.3597 14.1371H45.6236L49.5596 23.7479H49.7045L53.6406 14.1371H55.9044V26.5007H54.1296V17.554H54.0149L50.3686 26.4826H48.8956L45.2493 17.5479H45.1346V26.5007H43.3597V14.1371ZM61.1702 26.706C60.5826 26.706 60.0513 26.5973 59.5764 26.38C59.1015 26.1586 58.7252 25.8386 58.4475 25.4201C58.1738 25.0015 58.037 24.4884 58.037 23.8807C58.037 23.3575 58.1376 22.9268 58.3388 22.5888C58.5401 22.2507 58.8117 21.9831 59.1538 21.7859C59.4959 21.5886 59.8783 21.4397 60.3008 21.3391C60.7234 21.2385 61.1541 21.162 61.5927 21.1097C62.1481 21.0453 62.5989 20.993 62.945 20.9528C63.2911 20.9085 63.5427 20.8381 63.6996 20.7415C63.8566 20.6449 63.9351 20.4879 63.9351 20.2706V20.2283C63.9351 19.7011 63.7862 19.2926 63.4883 19.0028C63.1945 18.7131 62.7559 18.5682 62.1723 18.5682C61.5646 18.5682 61.0856 18.703 60.7355 18.9726C60.3894 19.2383 60.1499 19.5341 60.0171 19.8601L58.3207 19.4737C58.522 18.9103 58.8158 18.4555 59.2021 18.1094C59.5925 17.7592 60.0413 17.5057 60.5484 17.3487C61.0555 17.1877 61.5887 17.1072 62.1481 17.1072C62.5184 17.1072 62.9108 17.1515 63.3253 17.24C63.7439 17.3246 64.1343 17.4815 64.4965 17.7109C64.8627 17.9403 65.1626 18.2683 65.396 18.6949C65.6294 19.1175 65.7462 19.6669 65.7462 20.343V26.5007H63.9834V25.2329H63.9109C63.7942 25.4664 63.6191 25.6958 63.3857 25.9212C63.1523 26.1465 62.8524 26.3337 62.4862 26.4826C62.12 26.6315 61.6813 26.706 61.1702 26.706ZM61.5626 25.2571C62.0616 25.2571 62.4882 25.1585 62.8424 24.9613C63.2006 24.7641 63.4722 24.5065 63.6574 24.1886C63.8465 23.8666 63.9411 23.5225 63.9411 23.1562V21.9609C63.8767 22.0253 63.752 22.0857 63.5668 22.142C63.3857 22.1944 63.1784 22.2406 62.945 22.2809C62.7116 22.3171 62.4842 22.3513 62.2628 22.3835C62.0415 22.4117 61.8564 22.4358 61.7074 22.456C61.3573 22.5002 61.0373 22.5747 60.7476 22.6793C60.4618 22.784 60.2324 22.9349 60.0594 23.1321C59.8903 23.3253 59.8058 23.5828 59.8058 23.9048C59.8058 24.3515 59.9708 24.6896 60.3008 24.919C60.6309 25.1444 61.0514 25.2571 61.5626 25.2571ZM71.6216 26.6818C70.873 26.6818 70.2049 26.4906 69.6173 26.1083C69.0338 25.7219 68.575 25.1726 68.2409 24.4602C67.9109 23.7438 67.7459 22.8846 67.7459 21.8824C67.7459 20.8803 67.9129 20.0231 68.2469 19.3107C68.585 18.5984 69.0478 18.053 69.6354 17.6747C70.223 17.2964 70.8891 17.1072 71.6337 17.1072C72.2092 17.1072 72.672 17.2038 73.0222 17.397C73.3763 17.5862 73.65 17.8075 73.8432 18.0611C74.0404 18.3146 74.1933 18.538 74.302 18.7312H74.4107V14.1371H76.2157V26.5007H74.4529V25.0579H74.302C74.1933 25.2551 74.0364 25.4805 73.8311 25.734C73.6299 25.9876 73.3522 26.2089 72.998 26.3981C72.6438 26.5872 72.185 26.6818 71.6216 26.6818ZM72.02 25.1424C72.5392 25.1424 72.9779 25.0056 73.3361 24.7319C73.6983 24.4542 73.972 24.0698 74.1571 23.5788C74.3463 23.0878 74.4408 22.5163 74.4408 21.8643C74.4408 21.2204 74.3483 20.6569 74.1631 20.174C73.978 19.691 73.7063 19.3147 73.3482 19.0451C72.99 18.7754 72.5473 18.6406 72.02 18.6406C71.4767 18.6406 71.0239 18.7815 70.6617 19.0632C70.2995 19.3449 70.0258 19.7293 69.8407 20.2163C69.6596 20.7032 69.569 21.2526 69.569 21.8643C69.569 22.4841 69.6616 23.0415 69.8467 23.5366C70.0319 24.0316 70.3055 24.424 70.6678 24.7138C71.034 24.9995 71.4848 25.1424 72.02 25.1424ZM82.7884 26.6878C81.8748 26.6878 81.088 26.4926 80.428 26.1023C79.772 25.7078 79.2648 25.1545 78.9067 24.4421C78.5525 23.7257 78.3754 22.8866 78.3754 21.9247C78.3754 20.9749 78.5525 20.1378 78.9067 19.4133C79.2648 18.6889 79.7639 18.1234 80.4038 17.717C81.0478 17.3105 81.8004 17.1072 82.6616 17.1072C83.1848 17.1072 83.6919 17.1938 84.1829 17.3668C84.6739 17.5399 85.1146 17.8115 85.505 18.1818C85.8954 18.5521 86.2033 19.033 86.4287 19.6246C86.6541 20.2122 86.7667 20.9266 86.7667 21.7677V22.4077H79.3957V21.0554H84.9979C84.9979 20.5805 84.9013 20.1599 84.7081 19.7937C84.515 19.4234 84.2433 19.1316 83.8932 18.9183C83.547 18.705 83.1406 18.5984 82.6737 18.5984C82.1666 18.5984 81.7239 18.7231 81.3456 18.9726C80.9713 19.2181 80.6815 19.5401 80.4763 19.9386C80.275 20.333 80.1744 20.7616 80.1744 21.2244V22.2809C80.1744 22.9007 80.2831 23.4279 80.5004 23.8626C80.7218 24.2972 81.0296 24.6292 81.4241 24.8587C81.8185 25.084 82.2793 25.1967 82.8065 25.1967C83.1486 25.1967 83.4605 25.1484 83.7422 25.0518C84.024 24.9512 84.2675 24.8023 84.4727 24.6051C84.678 24.4079 84.8349 24.1644 84.9436 23.8746L86.652 24.1825C86.5152 24.6856 86.2697 25.1263 85.9155 25.5046C85.5654 25.8789 85.1247 26.1707 84.5934 26.38C84.0662 26.5852 83.4645 26.6878 82.7884 26.6878ZM97.6815 17.228V18.6768H92.4415V17.228H97.6815ZM93.8782 26.5007V16.1534C93.8782 15.5739 94.005 15.0929 94.2586 14.7106C94.5121 14.3242 94.8482 14.0364 95.2667 13.8473C95.6853 13.6541 96.1401 13.5575 96.6311 13.5575C96.9933 13.5575 97.3032 13.5877 97.5608 13.6481C97.8183 13.7044 98.0095 13.7567 98.1343 13.805L97.7117 15.266C97.6272 15.2418 97.5185 15.2136 97.3857 15.1815C97.2529 15.1452 97.0919 15.1271 96.9027 15.1271C96.4641 15.1271 96.1501 15.2358 95.961 15.4531C95.7759 15.6704 95.6833 15.9844 95.6833 16.3949V26.5007H93.8782ZM103.085 26.6878C102.215 26.6878 101.457 26.4886 100.809 26.0902C100.161 25.6917 99.6576 25.1343 99.2994 24.418C98.9412 23.7016 98.7621 22.8645 98.7621 21.9066C98.7621 20.9447 98.9412 20.1036 99.2994 19.3832C99.6576 18.6627 100.161 18.1033 100.809 17.7049C101.457 17.3065 102.215 17.1072 103.085 17.1072C103.954 17.1072 104.713 17.3065 105.36 17.7049C106.008 18.1033 106.512 18.6627 106.87 19.3832C107.228 20.1036 107.407 20.9447 107.407 21.9066C107.407 22.8645 107.228 23.7016 106.87 24.418C106.512 25.1343 106.008 25.6917 105.36 26.0902C104.713 26.4886 103.954 26.6878 103.085 26.6878ZM103.091 25.1726C103.654 25.1726 104.121 25.0237 104.491 24.7258C104.861 24.428 105.135 24.0316 105.312 23.5366C105.493 23.0415 105.584 22.4962 105.584 21.9006C105.584 21.3089 105.493 20.7656 105.312 20.2706C105.135 19.7715 104.861 19.3711 104.491 19.0692C104.121 18.7674 103.654 18.6165 103.091 18.6165C102.523 18.6165 102.052 18.7674 101.678 19.0692C101.308 19.3711 101.032 19.7715 100.851 20.2706C100.674 20.7656 100.585 21.3089 100.585 21.9006C100.585 22.4962 100.674 23.0415 100.851 23.5366C101.032 24.0316 101.308 24.428 101.678 24.7258C102.052 25.0237 102.523 25.1726 103.091 25.1726ZM109.422 26.5007V17.228H111.167V18.701H111.263C111.432 18.2019 111.73 17.8095 112.157 17.5238C112.587 17.234 113.074 17.0891 113.617 17.0891C113.73 17.0891 113.863 17.0931 114.016 17.1012C114.173 17.1092 114.296 17.1193 114.384 17.1314V18.8579C114.312 18.8378 114.183 18.8157 113.998 18.7915C113.813 18.7634 113.628 18.7493 113.442 18.7493C113.016 18.7493 112.635 18.8398 112.301 19.0209C111.971 19.198 111.71 19.4455 111.517 19.7635C111.323 20.0774 111.227 20.4356 111.227 20.8381V26.5007H109.422Z" fill="#E8E8E8"/>
<path d="M119.937 26.5007V14.1371H128.377V16.5639H122.925V19.0994H127.839V21.5323H122.925V26.5007H119.937ZM132.346 26.6577C131.754 26.6577 131.229 26.5591 130.77 26.3618C130.316 26.1606 129.955 25.8588 129.69 25.4563C129.428 25.0498 129.297 24.5407 129.297 23.929C129.297 23.4138 129.388 22.9792 129.569 22.625C129.75 22.2708 130 21.9831 130.318 21.7617C130.636 21.5404 131.002 21.3733 131.416 21.2606C131.831 21.1439 132.274 21.0654 132.744 21.0252C133.272 20.9769 133.696 20.9266 134.018 20.8743C134.34 20.8179 134.574 20.7395 134.719 20.6388C134.867 20.5342 134.942 20.3873 134.942 20.1981V20.168C134.942 19.8581 134.835 19.6186 134.622 19.4496C134.409 19.2805 134.121 19.196 133.759 19.196C133.368 19.196 133.054 19.2805 132.817 19.4496C132.579 19.6186 132.429 19.852 132.364 20.1498L129.641 20.0533C129.722 19.4898 129.929 18.9867 130.263 18.544C130.601 18.0973 131.064 17.7471 131.652 17.4936C132.243 17.236 132.954 17.1072 133.783 17.1072C134.374 17.1072 134.92 17.1777 135.419 17.3185C135.918 17.4554 136.353 17.6566 136.723 17.9222C137.093 18.1838 137.379 18.5058 137.58 18.8881C137.785 19.2705 137.888 19.7071 137.888 20.1981V26.5007H135.111V25.2088H135.038C134.873 25.5227 134.662 25.7883 134.405 26.0057C134.151 26.223 133.851 26.386 133.505 26.4947C133.163 26.6033 132.777 26.6577 132.346 26.6577ZM133.258 24.7258C133.576 24.7258 133.861 24.6614 134.115 24.5327C134.372 24.4039 134.578 24.2268 134.731 24.0014C134.884 23.772 134.96 23.5064 134.96 23.2045V22.3231C134.875 22.3674 134.773 22.4077 134.652 22.4439C134.535 22.4801 134.407 22.5143 134.266 22.5465C134.125 22.5787 133.98 22.6069 133.831 22.631C133.682 22.6552 133.539 22.6773 133.402 22.6974C133.125 22.7417 132.887 22.8101 132.69 22.9027C132.497 22.9953 132.348 23.116 132.243 23.2649C132.143 23.4098 132.092 23.5828 132.092 23.7841C132.092 24.0899 132.201 24.3234 132.418 24.4844C132.64 24.6453 132.92 24.7258 133.258 24.7258ZM139.693 26.5007V17.228H142.645V26.5007H139.693ZM141.172 16.1474C140.757 16.1474 140.401 16.0105 140.103 15.7369C139.806 15.4592 139.657 15.1251 139.657 14.7347C139.657 14.3484 139.806 14.0183 140.103 13.7447C140.401 13.467 140.757 13.3281 141.172 13.3281C141.591 13.3281 141.947 13.467 142.241 13.7447C142.538 14.0183 142.687 14.3484 142.687 14.7347C142.687 15.1251 142.538 15.4592 142.241 15.7369C141.947 16.0105 141.591 16.1474 141.172 16.1474ZM147.476 14.1371V26.5007H144.524V14.1371H147.476ZM153.69 26.6758C152.72 26.6758 151.883 26.4846 151.178 26.1023C150.478 25.7159 149.939 25.1665 149.56 24.4542C149.186 23.7378 148.999 22.8866 148.999 21.9006C148.999 20.9427 149.188 20.1056 149.566 19.3892C149.945 18.6688 150.478 18.1094 151.166 17.7109C151.854 17.3085 152.665 17.1072 153.599 17.1072C154.259 17.1072 154.863 17.2099 155.41 17.4151C155.957 17.6204 156.43 17.9242 156.829 18.3267C157.227 18.7292 157.537 19.2262 157.758 19.8178C157.98 20.4054 158.09 21.0795 158.09 21.8402V22.5767H150.031V20.8622H155.344C155.34 20.5483 155.265 20.2686 155.12 20.0231C154.975 19.7776 154.776 19.5864 154.523 19.4496C154.273 19.3087 153.985 19.2383 153.659 19.2383C153.329 19.2383 153.034 19.3127 152.772 19.4616C152.51 19.6065 152.303 19.8057 152.15 20.0593C151.997 20.3088 151.917 20.5926 151.909 20.9105V22.6552C151.909 23.0335 151.983 23.3655 152.132 23.6513C152.281 23.933 152.492 24.1523 152.766 24.3093C153.04 24.4663 153.366 24.5447 153.744 24.5447C154.006 24.5447 154.243 24.5085 154.456 24.4361C154.67 24.3636 154.853 24.257 155.006 24.1161C155.159 23.9752 155.273 23.8022 155.35 23.5969L158.06 23.6754C157.948 24.2831 157.7 24.8124 157.318 25.2631C156.939 25.7099 156.442 26.058 155.827 26.3075C155.211 26.553 154.499 26.6758 153.69 26.6758ZM162.985 26.6335C162.301 26.6335 161.679 26.4564 161.12 26.1023C160.56 25.7481 160.113 25.2168 159.779 24.5085C159.445 23.8002 159.278 22.9208 159.278 21.8704C159.278 20.7797 159.451 19.8822 159.797 19.1779C160.144 18.4736 160.596 17.9524 161.156 17.6143C161.719 17.2763 162.325 17.1072 162.973 17.1072C163.46 17.1072 163.876 17.1918 164.223 17.3608C164.569 17.5258 164.854 17.7391 165.08 18.0007C165.305 18.2623 165.476 18.534 165.593 18.8157H165.653V14.1371H168.605V26.5007H165.683V24.9975H165.593C165.468 25.2832 165.291 25.5509 165.062 25.8004C164.832 26.0499 164.544 26.2512 164.198 26.4041C163.856 26.557 163.452 26.6335 162.985 26.6335ZM164.011 24.3334C164.369 24.3334 164.675 24.2328 164.929 24.0316C165.182 23.8263 165.378 23.5386 165.514 23.1683C165.651 22.798 165.72 22.3634 165.72 21.8643C165.72 21.3572 165.651 20.9206 165.514 20.5543C165.382 20.1881 165.186 19.9064 164.929 19.7092C164.675 19.5119 164.369 19.4133 164.011 19.4133C163.645 19.4133 163.335 19.514 163.082 19.7152C162.828 19.9164 162.635 20.2002 162.502 20.5664C162.373 20.9326 162.309 21.3653 162.309 21.8643C162.309 22.3634 162.375 22.798 162.508 23.1683C162.641 23.5386 162.832 23.8263 163.082 24.0316C163.335 24.2328 163.645 24.3334 164.011 24.3334ZM176.932 14.1371L179.697 23.1925H179.799L182.564 14.1371H185.909L181.737 26.5007H177.759L173.587 14.1371H176.932ZM190.456 26.6758C189.482 26.6758 188.645 26.4765 187.945 26.0781C187.248 25.6756 186.711 25.1162 186.333 24.3998C185.958 23.6794 185.771 22.8443 185.771 21.8945C185.771 20.9407 185.958 20.1056 186.333 19.3892C186.711 18.6688 187.248 18.1094 187.945 17.7109C188.645 17.3085 189.482 17.1072 190.456 17.1072C191.43 17.1072 192.265 17.3085 192.961 17.7109C193.662 18.1094 194.199 18.6688 194.573 19.3892C194.951 20.1056 195.141 20.9407 195.141 21.8945C195.141 22.8443 194.951 23.6794 194.573 24.3998C194.199 25.1162 193.662 25.6756 192.961 26.0781C192.265 26.4765 191.43 26.6758 190.456 26.6758ZM190.474 24.4481C190.828 24.4481 191.128 24.3395 191.374 24.1221C191.619 23.9048 191.806 23.603 191.935 23.2166C192.068 22.8302 192.134 22.3835 192.134 21.8764C192.134 21.3613 192.068 20.9105 191.935 20.5241C191.806 20.1378 191.619 19.8359 191.374 19.6186C191.128 19.4013 190.828 19.2926 190.474 19.2926C190.108 19.2926 189.798 19.4013 189.544 19.6186C189.295 19.8359 189.104 20.1378 188.971 20.5241C188.842 20.9105 188.778 21.3613 188.778 21.8764C188.778 22.3835 188.842 22.8302 188.971 23.2166C189.104 23.603 189.295 23.9048 189.544 24.1221C189.798 24.3395 190.108 24.4481 190.474 24.4481ZM198.159 29.978C197.805 29.978 197.471 29.9498 197.157 29.8935C196.843 29.8411 196.573 29.7707 196.348 29.6822L197 27.539C197.29 27.6356 197.551 27.692 197.785 27.7081C198.022 27.7242 198.226 27.6859 198.395 27.5934C198.568 27.5048 198.7 27.3459 198.793 27.1165L198.908 26.8388L195.612 17.228H198.702L200.411 23.8444H200.507L202.24 17.228H205.349L201.854 27.3881C201.685 27.8952 201.445 28.342 201.135 28.7283C200.829 29.1187 200.433 29.4246 199.946 29.6459C199.463 29.8673 198.867 29.978 198.159 29.978ZM208.846 26.6577C208.254 26.6577 207.729 26.5591 207.27 26.3618C206.816 26.1606 206.455 25.8588 206.19 25.4563C205.928 25.0498 205.797 24.5407 205.797 23.929C205.797 23.4138 205.888 22.9792 206.069 22.625C206.25 22.2708 206.5 21.9831 206.818 21.7617C207.136 21.5404 207.502 21.3733 207.916 21.2606C208.331 21.1439 208.774 21.0654 209.244 21.0252C209.772 20.9769 210.196 20.9266 210.518 20.8743C210.84 20.8179 211.074 20.7395 211.218 20.6388C211.367 20.5342 211.442 20.3873 211.442 20.1981V20.168C211.442 19.8581 211.335 19.6186 211.122 19.4496C210.909 19.2805 210.621 19.196 210.259 19.196C209.868 19.196 209.554 19.2805 209.317 19.4496C209.079 19.6186 208.928 19.852 208.864 20.1498L206.141 20.0533C206.222 19.4898 206.429 18.9867 206.763 18.544C207.101 18.0973 207.564 17.7471 208.152 17.4936C208.743 17.236 209.454 17.1072 210.283 17.1072C210.874 17.1072 211.42 17.1777 211.919 17.3185C212.418 17.4554 212.852 17.6566 213.223 17.9222C213.593 18.1838 213.879 18.5058 214.08 18.8881C214.285 19.2705 214.388 19.7071 214.388 20.1981V26.5007H211.611V25.2088H211.538C211.373 25.5227 211.162 25.7883 210.905 26.0057C210.651 26.223 210.351 26.386 210.005 26.4947C209.663 26.6033 209.277 26.6577 208.846 26.6577ZM209.758 24.7258C210.076 24.7258 210.361 24.6614 210.615 24.5327C210.872 24.4039 211.078 24.2268 211.231 24.0014C211.384 23.772 211.46 23.5064 211.46 23.2045V22.3231C211.375 22.3674 211.273 22.4077 211.152 22.4439C211.035 22.4801 210.907 22.5143 210.766 22.5465C210.625 22.5787 210.48 22.6069 210.331 22.631C210.182 22.6552 210.039 22.6773 209.902 22.6974C209.625 22.7417 209.387 22.8101 209.19 22.9027C208.997 22.9953 208.848 23.116 208.743 23.2649C208.643 23.4098 208.592 23.5828 208.592 23.7841C208.592 24.0899 208.701 24.3234 208.918 24.4844C209.14 24.6453 209.419 24.7258 209.758 24.7258ZM220.515 30.1712C219.634 30.1712 218.879 30.0484 218.252 29.8029C217.624 29.5574 217.131 29.2213 216.772 28.7947C216.414 28.3681 216.199 27.8852 216.127 27.3459L218.922 27.1889C218.974 27.3781 219.071 27.5431 219.211 27.6839C219.356 27.8248 219.543 27.9335 219.773 28.0099C220.006 28.0864 220.28 28.1246 220.594 28.1246C221.089 28.1246 221.497 28.0039 221.819 27.7624C222.145 27.525 222.308 27.1084 222.308 26.5128V24.8828H222.206C222.089 25.1685 221.912 25.4241 221.674 25.6495C221.437 25.8749 221.141 26.052 220.787 26.1807C220.437 26.3095 220.034 26.3739 219.58 26.3739C218.904 26.3739 218.284 26.217 217.72 25.903C217.161 25.5851 216.712 25.0941 216.374 24.43C216.04 23.7619 215.873 22.9027 215.873 21.8523C215.873 20.7696 216.046 19.8782 216.392 19.1779C216.738 18.4736 217.191 17.9524 217.75 17.6143C218.314 17.2763 218.92 17.1072 219.568 17.1072C220.055 17.1072 220.471 17.1918 220.817 17.3608C221.167 17.5258 221.455 17.7391 221.68 18.0007C221.906 18.2623 222.077 18.534 222.194 18.8157H222.278V17.228H225.218V26.5369C225.218 27.3217 225.021 27.9838 224.627 28.5231C224.232 29.0624 223.681 29.4709 222.972 29.7486C222.264 30.0303 221.445 30.1712 220.515 30.1712ZM220.606 24.2248C220.964 24.2248 221.27 24.1302 221.524 23.941C221.777 23.7519 221.972 23.4802 222.109 23.1261C222.246 22.7719 222.314 22.3473 222.314 21.8523C222.314 21.3492 222.246 20.9165 222.109 20.5543C221.976 20.1881 221.781 19.9064 221.524 19.7092C221.27 19.5119 220.964 19.4133 220.606 19.4133C220.24 19.4133 219.93 19.514 219.676 19.7152C219.423 19.9164 219.23 20.2002 219.097 20.5664C218.968 20.9286 218.904 21.3572 218.904 21.8523C218.904 22.3473 218.97 22.7719 219.103 23.1261C219.236 23.4802 219.427 23.7519 219.676 23.941C219.93 24.1302 220.24 24.2248 220.606 24.2248ZM231.435 26.6758C230.465 26.6758 229.628 26.4846 228.923 26.1023C228.223 25.7159 227.684 25.1665 227.305 24.4542C226.931 23.7378 226.744 22.8866 226.744 21.9006C226.744 20.9427 226.933 20.1056 227.311 19.3892C227.69 18.6688 228.223 18.1094 228.911 17.7109C229.599 17.3085 230.41 17.1072 231.344 17.1072C232.004 17.1072 232.608 17.2099 233.155 17.4151C233.703 17.6204 234.175 17.9242 234.574 18.3267C234.972 18.7292 235.282 19.2262 235.504 19.8178C235.725 20.4054 235.836 21.0795 235.836 21.8402V22.5767H227.776V20.8622H233.089C233.085 20.5483 233.01 20.2686 232.865 20.0231C232.721 19.7776 232.521 19.5864 232.268 19.4496C232.018 19.3087 231.73 19.2383 231.404 19.2383C231.074 19.2383 230.779 19.3127 230.517 19.4616C230.255 19.6065 230.048 19.8057 229.895 20.0593C229.742 20.3088 229.662 20.5926 229.654 20.9105V22.6552C229.654 23.0335 229.728 23.3655 229.877 23.6513C230.026 23.933 230.237 24.1523 230.511 24.3093C230.785 24.4663 231.111 24.5447 231.489 24.5447C231.751 24.5447 231.988 24.5085 232.201 24.4361C232.415 24.3636 232.598 24.257 232.751 24.1161C232.904 23.9752 233.018 23.8022 233.095 23.5969L235.805 23.6754C235.693 24.2831 235.445 24.8124 235.063 25.2631C234.685 25.7099 234.188 26.058 233.572 26.3075C232.956 26.553 232.244 26.6758 231.435 26.6758Z" fill="#FFEBB0"/>
</g>
<defs>
<filter id="filter0_d_1_56" x="2.39972" y="0.39972" width="39.202" height="39.202" filterUnits="userSpaceOnUse" color-interpolation-filters="sRGB">
<feFlood flood-opacity="0" result="BackgroundImageFix"/>
<feColorMatrix in="SourceAlpha" type="matrix" values="0 0 0 0 0 0 0 0 0 0 0 0 0 0 0 0 0 0 127 0" result="hardAlpha"/>
<feOffset/>
<feGaussianBlur stdDeviation="2.80014"/>
<feComposite in2="hardAlpha" operator="out"/>
<feColorMatrix type="matrix" values="0 0 0 0 0 0 0 0 0 0 0 0 0 0 0 0 0 0 0.25 0"/>
<feBlend mode="normal" in2="BackgroundImageFix" result="effect1_dropShadow_1_56"/>
<feBlend mode="normal" in="SourceGraphic" in2="effect1_dropShadow_1_56" result="shape"/>
</filter>
<filter id="filter1_d_1_56" x="36.2871" y="3.78642" width="206.429" height="32.4286" filterUnits="userSpaceOnUse" color-interpolation-filters="sRGB">
<feFlood flood-opacity="0" result="BackgroundImageFix"/>
<feColorMatrix in="SourceAlpha" type="matrix" values="0 0 0 0 0 0 0 0 0 0 0 0 0 0 0 0 0 0 127 0" result="hardAlpha"/>
<feOffset/>
<feGaussianBlur stdDeviation="2.85714"/>
<feComposite in2="hardAlpha" operator="out"/>
<feColorMatrix type="matrix" values="0 0 0 0 0 0 0 0 0 0 0 0 0 0 0 0 0 0 0.25 0"/>
<feBlend mode="normal" in2="BackgroundImageFix" result="effect1_dropShadow_1_56"/>
<feBlend mode="normal" in="SourceGraphic" in2="effect1_dropShadow_1_56" result="shape"/>
</filter>
<linearGradient id="paint0_linear_1_56" x1="122.501" y1="0" x2="122.501" y2="40.0014" gradientUnits="userSpaceOnUse">
<stop stop-color="#DEB74F"/>
<stop offset="1" stop-color="#916A37"/>
</linearGradient>
</defs>
</svg>
